<?xml version="1.0" standalone="no"?>
<!DOCTYPE svg PUBLIC "-//W3C//DTD SVG 20010904//EN"
 "http://www.w3.org/TR/2001/REC-SVG-20010904/DTD/svg10.dtd">
<svg version="1.0" xmlns="http://www.w3.org/2000/svg"
 width="180.000000pt" height="180.000000pt" viewBox="0 0 180.000000 180.000000"
 preserveAspectRatio="xMidYMid meet">
<metadata>
Created by potrace 1.11, written by Peter Selinger 2001-2013
</metadata>
<g transform="translate(0.000000,180.000000) scale(0.100000,-0.100000)"
fill="#000000" stroke="none">
<path d="M50 1070 l0 -590 393 2 392 3 3 63 3 62 -316 0 -315 0 0 525 0 525
-80 0 -80 0 0 -590z"/>
<path d="M1229 1366 c-202 -58 -322 -245 -306 -476 9 -134 74 -269 158 -330
75 -54 142 -73 254 -73 195 -1 323 79 387 241 18 49 22 77 22 192 1 117 -2
144 -22 203 -32 92 -99 165 -197 213 -65 32 -85 37 -162 40 -54 2 -106 -2
-134 -10z m216 -135 c50 -23 109 -84 129 -133 42 -100 40 -251 -4 -342 -64
-133 -213 -186 -341 -123 -64 31 -104 78 -137 161 -21 52 -24 71 -20 145 8
147 64 248 162 292 55 25 157 25 211 0z"/>
<path d="M1743 220 c0 -47 2 -66 4 -42 2 23 2 61 0 85 -2 23 -4 4 -4 -43z"/>
</g>
</svg>
